<svg width="50" height="50" viewBox="0 0 50 50" fill="none" xmlns="http://www.w3.org/2000/svg">
<path d="M28.9063 42.9688C26.5968 42.971 24.3226 42.4023 22.286 41.3133C22.1617 41.2464 22.0579 41.1471 21.9855 41.0259C21.9131 40.9047 21.875 40.7662 21.875 40.625V39.8438C21.875 39.6366 21.7927 39.4379 21.6462 39.2914C21.4997 39.1449 21.301 39.0625 21.0938 39.0625H19.5C19.3971 39.0626 19.2952 39.0424 19.2002 39.003C19.1051 38.9635 19.0188 38.9057 18.9461 38.8329C16.8205 36.7002 15.4355 33.9415 14.995 30.9628C14.5546 27.9841 15.0818 24.9426 16.4993 22.286L17.8758 23.0266C16.9023 24.8329 16.3971 26.8544 16.4063 28.9063C16.3977 32.1049 17.6241 35.1834 19.8297 37.5H21.0938C21.7154 37.5 22.3115 37.747 22.7511 38.1865C23.1906 38.6261 23.4375 39.2222 23.4375 39.8438V40.1485C25.5352 41.1684 27.8766 41.5803 30.1963 41.3376C32.5161 41.0948 34.7215 40.2071 36.5625 38.775C37.3927 38.1438 38.1338 37.4032 38.7657 36.5735C40.4849 34.3884 41.4154 31.6866 41.4063 28.9063C41.4081 26.6719 40.8091 24.4781 39.6719 22.5547L41.0157 21.7586C42.4496 24.1847 43.1202 26.9861 42.9402 29.7985C42.7602 32.6109 41.7379 35.304 40.0063 37.5274C39.2933 38.4639 38.4571 39.2999 37.5203 40.0125C35.0634 41.9391 32.0285 42.9806 28.9063 42.9688ZM28.9063 39.8438C27.3829 39.8445 25.8763 39.527 24.4828 38.9116C23.0893 38.2962 21.8397 37.3965 20.8141 36.2702C19.7885 35.1438 19.0094 33.8156 18.5269 32.3707C18.0444 30.9258 17.869 29.3961 18.0121 27.8795C18.1551 26.3628 18.6133 24.8928 19.3574 23.5636C20.1015 22.2344 21.1151 21.0752 22.3332 20.1605C23.5513 19.2457 24.947 18.5955 26.431 18.2514C27.915 17.9074 29.4545 17.8771 30.9508 18.1625L30.6586 19.6977C28.3042 19.2551 25.8697 19.7332 23.8575 21.0332C21.8452 22.3332 20.4088 24.356 19.8444 26.6842C19.2801 29.0124 19.6309 31.4685 20.8246 33.5455C22.0183 35.6226 23.9637 37.1623 26.2594 37.8469C28.5552 38.5315 31.0261 38.3087 33.1625 37.2246C35.2988 36.1405 36.9375 34.2777 37.7404 32.0207C38.5434 29.7636 38.4494 27.2844 37.4778 25.0946C36.5062 22.9049 34.7311 21.1716 32.5188 20.2524L33.1219 18.8102C35.4566 19.783 37.3819 21.5349 38.5702 23.7676C39.7585 26.0003 40.1363 28.5758 39.6393 31.0557C39.1422 33.5356 37.8011 35.7666 35.8442 37.3689C33.8873 38.9712 31.4355 39.8458 28.9063 39.8438V39.8438ZM39.1985 21.8157C38.7739 21.1949 38.2923 20.6151 37.7602 20.0836L38.8649 18.979C39.466 19.578 40.0097 20.2319 40.4891 20.9321L39.1985 21.8157ZM20.0828 20.0532L18.9797 18.9469C20.2817 17.6418 21.8292 16.6074 23.5329 15.9032C25.2366 15.199 27.0628 14.8389 28.9063 14.8438C29.4604 14.8432 30.0141 14.8766 30.5641 14.9438L30.3735 16.4938C29.8866 16.4351 29.3967 16.4059 28.9063 16.4063C27.2677 16.4022 25.6445 16.7223 24.1302 17.3482C22.6159 17.9741 21.2404 18.8934 20.0828 20.0532V20.0532Z" fill="#0080FF"/>
<path d="M28.9064 39.8438C27.3831 39.8445 25.8764 39.5269 24.4829 38.9115C23.0894 38.2962 21.8398 37.3965 20.8142 36.2701C19.7886 35.1437 19.0096 33.8156 18.527 32.3707C18.0445 30.9258 17.8692 29.396 18.0122 27.8794C18.1552 26.3628 18.6134 24.8928 19.3575 23.5636C20.1017 22.2343 21.1152 21.0752 22.3333 20.1604C23.5514 19.2456 24.9471 18.5954 26.4311 18.2514C27.9151 17.9073 29.4546 17.877 30.9509 18.1625L30.6587 19.6977C28.3043 19.2551 25.8699 19.7331 23.8576 21.0331C21.8454 22.3331 20.4089 24.3559 19.8445 26.6841C19.2802 29.0124 19.6311 31.4684 20.8247 33.5455C22.0184 35.6226 23.9638 37.1622 26.2596 37.8468C28.5553 38.5314 31.0263 38.3087 33.1626 37.2246C35.2989 36.1405 36.9376 34.2777 37.7406 32.0206C38.5435 29.7636 38.4495 27.2844 37.4779 25.0946C36.5063 22.9048 34.7312 21.1715 32.5189 20.2523L33.122 18.8102C35.4567 19.783 37.382 21.5348 38.5703 23.7675C39.7586 26.0002 40.1364 28.5757 39.6394 31.0556C39.1424 33.5355 37.8012 35.7666 35.8443 37.3689C33.8874 38.9712 31.4356 39.8458 28.9064 39.8438V39.8438Z" fill="#0080FF"/>
<path d="M46.0936 50.0001C45.8864 50 45.6877 49.9177 45.5412 49.7712L37.7287 41.9587C37.5823 41.8122 37.5 41.6135 37.5 41.4063C37.5 41.1992 37.5823 41.0005 37.7287 40.854L40.8537 37.729C41.0002 37.5825 41.1989 37.5002 41.4061 37.5002C41.6132 37.5002 41.8119 37.5825 41.9584 37.729L49.7709 45.5415C49.9174 45.688 49.9997 45.8867 49.9997 46.0938C49.9997 46.301 49.9174 46.4997 49.7709 46.6462L46.6459 49.7712C46.4994 49.9177 46.3008 50 46.0936 50.0001V50.0001ZM39.3858 41.4063L46.0936 48.1141L48.1139 46.0938L41.4061 39.386L39.3858 41.4063Z" fill="#0080FF"/>
<path d="M42.4171 39.2909L39.292 42.416L40.3968 43.5209L43.5219 40.3958L42.4171 39.2909Z" fill="#0080FF"/>
<path d="M37.2714 38.5106L36.1665 39.6155L38.5105 41.9594L39.6153 40.8546L37.2714 38.5106Z" fill="#0080FF"/>
<path d="M39.6151 36.1661L38.5103 37.271L40.8542 39.6149L41.9591 38.5101L39.6151 36.1661Z" fill="#0080FF"/>
<path d="M27.3438 32.0312H22.6562C22.449 32.0312 22.2503 31.9489 22.1038 31.8024C21.9573 31.6559 21.875 31.4572 21.875 31.25V26.5625C21.875 26.3553 21.9573 26.1566 22.1038 26.0101C22.2503 25.8636 22.449 25.7812 22.6562 25.7812H27.3438C27.551 25.7812 27.7497 25.8636 27.8962 26.0101C28.0427 26.1566 28.125 26.3553 28.125 26.5625V31.25C28.125 31.4572 28.0427 31.6559 27.8962 31.8024C27.7497 31.9489 27.551 32.0312 27.3438 32.0312ZM23.4375 30.4688H26.5625V27.3438H23.4375V30.4688Z" fill="#0080FF"/>
<path d="M32.8125 34.3749C32.7066 34.3753 32.6018 34.3537 32.5047 34.3116L27.0359 31.9679C26.8954 31.9077 26.7757 31.8075 26.6915 31.6799C26.6074 31.5523 26.5625 31.4028 26.5625 31.2499V26.5624C26.5625 26.4095 26.6074 26.26 26.6915 26.1324C26.7757 26.0048 26.8954 25.9047 27.0359 25.8444L32.5047 23.5007C32.6235 23.4498 32.7531 23.4291 32.8819 23.4406C33.0107 23.4521 33.1346 23.4953 33.2425 23.5665C33.3504 23.6376 33.439 23.7345 33.5003 23.8483C33.5616 23.9621 33.5937 24.0894 33.5938 24.2187V33.5937C33.5938 33.8009 33.5114 33.9996 33.3649 34.1461C33.2184 34.2926 33.0197 34.3749 32.8125 34.3749ZM28.125 30.7351L32.0312 32.4085V25.4038L28.125 27.0773V30.7351Z" fill="#0080FF"/>
<path d="M35.1562 34.375H32.8125V32.8125H34.375V25H32.8125V23.4375H35.1562C35.3635 23.4375 35.5622 23.5198 35.7087 23.6663C35.8552 23.8128 35.9375 24.0115 35.9375 24.2188V33.5938C35.9375 33.801 35.8552 33.9997 35.7087 34.1462C35.5622 34.2927 35.3635 34.375 35.1562 34.375Z" fill="#0080FF"/>
<path d="M24.6094 34.375C24.0914 34.375 23.5946 34.1692 23.2283 33.8029C22.862 33.4367 22.6562 32.9399 22.6562 32.4219V31.25H24.2188V32.4219C24.2188 32.5255 24.2599 32.6248 24.3332 32.6981C24.4064 32.7713 24.5058 32.8125 24.6094 32.8125C24.713 32.8125 24.8123 32.7713 24.8856 32.6981C24.9588 32.6248 25 32.5255 25 32.4219V31.25H26.5625V32.4219C26.5625 32.9399 26.3567 33.4367 25.9904 33.8029C25.6242 34.1692 25.1274 34.375 24.6094 34.375V34.375Z" fill="#0080FF"/>
<path d="M10.9375 18.75H9.375V9.375C9.36592 9.06475 9.42034 8.75592 9.53492 8.46746C9.64949 8.179 9.8218 7.91699 10.0413 7.69752C10.2607 7.47805 10.5227 7.30574 10.8112 7.19117C11.0997 7.07659 11.4085 7.02217 11.7187 7.03125C12.029 7.02217 12.3378 7.07659 12.6263 7.19117C12.9147 7.30574 13.1768 7.47805 13.3962 7.69752C13.6157 7.91699 13.788 8.179 13.9026 8.46746C14.0172 8.75592 14.0716 9.06475 14.0625 9.375H12.5C12.5103 9.26984 12.4972 9.16371 12.4616 9.06423C12.426 8.96476 12.3688 8.87441 12.294 8.7997C12.2193 8.72499 12.129 8.66777 12.0295 8.63216C11.93 8.59654 11.8239 8.58343 11.7187 8.59375C11.6129 8.58378 11.5061 8.59746 11.4061 8.63381C11.3061 8.67015 11.2155 8.72825 11.1408 8.80391C11.066 8.87957 11.009 8.97089 10.9738 9.07128C10.9387 9.17166 10.9263 9.2786 10.9375 9.38437V18.75Z" fill="#0080FF"/>
<path d="M13.2812 11.7188H7.03125V13.2812H13.2812V11.7188Z" fill="#0080FF"/>
<path d="M12.5 26.5625C12.2928 26.5625 12.0941 26.4801 11.9477 26.3336L9.05156 23.4375H2.34375C1.72215 23.4375 1.12601 23.1906 0.686468 22.751C0.24693 22.3115 0 21.7154 0 21.0938L0 5.46875C0 4.84715 0.24693 4.25101 0.686468 3.81147C1.12601 3.37193 1.72215 3.125 2.34375 3.125H17.9688C18.5904 3.125 19.1865 3.37193 19.626 3.81147C20.0656 4.25101 20.3125 4.84715 20.3125 5.46875V21.0938C20.3125 21.7154 20.0656 22.3115 19.626 22.751C19.1865 23.1906 18.5904 23.4375 17.9688 23.4375H13.2812V25.7812C13.2813 25.9358 13.2355 26.0868 13.1497 26.2153C13.0639 26.3438 12.9419 26.4439 12.7992 26.5031C12.7044 26.5426 12.6027 26.5628 12.5 26.5625V26.5625ZM2.34375 4.6875C2.13655 4.6875 1.93784 4.76981 1.79132 4.91632C1.64481 5.06284 1.5625 5.26155 1.5625 5.46875V21.0938C1.5625 21.301 1.64481 21.4997 1.79132 21.6462C1.93784 21.7927 2.13655 21.875 2.34375 21.875H9.375C9.58218 21.875 9.78086 21.9574 9.92734 22.1039L11.7188 23.8953V22.6562C11.7188 22.449 11.8011 22.2503 11.9476 22.1038C12.0941 21.9573 12.2928 21.875 12.5 21.875H17.9688C18.176 21.875 18.3747 21.7927 18.5212 21.6462C18.6677 21.4997 18.75 21.301 18.75 21.0938V5.46875C18.75 5.26155 18.6677 5.06284 18.5212 4.91632C18.3747 4.76981 18.176 4.6875 17.9688 4.6875H2.34375Z" fill="#0080FF"/>
<path d="M39.8438 23.4375C39.7411 23.4378 39.6393 23.4176 39.5445 23.3781C39.4018 23.3189 39.2798 23.2188 39.194 23.0903C39.1082 22.9618 39.0625 22.8108 39.0625 22.6562V20.3125H32.0312C31.4096 20.3125 30.8135 20.0656 30.374 19.626C29.9344 19.1865 29.6875 18.5904 29.6875 17.9688V2.34375C29.6875 1.72215 29.9344 1.12601 30.374 0.686468C30.8135 0.24693 31.4096 0 32.0312 0L47.6562 0C48.2779 0 48.874 0.24693 49.3135 0.686468C49.7531 1.12601 50 1.72215 50 2.34375V17.9688C50 18.5904 49.7531 19.1865 49.3135 19.626C48.874 20.0656 48.2779 20.3125 47.6562 20.3125H43.2922L40.3961 23.2086C40.2496 23.3551 40.0509 23.4375 39.8438 23.4375ZM32.0312 1.5625C31.824 1.5625 31.6253 1.64481 31.4788 1.79132C31.3323 1.93784 31.25 2.13655 31.25 2.34375V17.9688C31.25 18.176 31.3323 18.3747 31.4788 18.5212C31.6253 18.6677 31.824 18.75 32.0312 18.75H39.8438C40.051 18.75 40.2497 18.8323 40.3962 18.9788C40.5427 19.1253 40.625 19.324 40.625 19.5312V20.7703L42.4164 18.9789C42.5629 18.8324 42.7616 18.75 42.9688 18.75H47.6562C47.8635 18.75 48.0622 18.6677 48.2087 18.5212C48.3552 18.3747 48.4375 18.176 48.4375 17.9688V2.34375C48.4375 2.13655 48.3552 1.93784 48.2087 1.79132C48.0622 1.64481 47.8635 1.5625 47.6562 1.5625H32.0312Z" fill="#0080FF"/>
<path d="M44.5312 17.1875H35.1562C34.5346 17.1875 33.9385 16.9406 33.499 16.501C33.0594 16.0615 32.8125 15.4654 32.8125 14.8438V5.46875C32.8125 4.84715 33.0594 4.25101 33.499 3.81147C33.9385 3.37193 34.5346 3.125 35.1562 3.125H44.5312C45.1529 3.125 45.749 3.37193 46.1885 3.81147C46.6281 4.25101 46.875 4.84715 46.875 5.46875V14.8438C46.875 15.4654 46.6281 16.0615 46.1885 16.501C45.749 16.9406 45.1529 17.1875 44.5312 17.1875ZM35.1562 4.6875C34.949 4.6875 34.7503 4.76981 34.6038 4.91632C34.4573 5.06284 34.375 5.26155 34.375 5.46875V14.8438C34.375 15.051 34.4573 15.2497 34.6038 15.3962C34.7503 15.5427 34.949 15.625 35.1562 15.625H44.5312C44.7385 15.625 44.9372 15.5427 45.0837 15.3962C45.2302 15.2497 45.3125 15.051 45.3125 14.8438V5.46875C45.3125 5.26155 45.2302 5.06284 45.0837 4.91632C44.9372 4.76981 44.7385 4.6875 44.5312 4.6875H35.1562Z" fill="#0080FF"/>
<path d="M39.8438 13.2813C39.2257 13.2813 38.6215 13.098 38.1076 12.7546C37.5937 12.4112 37.1932 11.9232 36.9566 11.3521C36.7201 10.7811 36.6582 10.1528 36.7788 9.54659C36.8994 8.9404 37.197 8.38358 37.634 7.94654C38.0711 7.5095 38.6279 7.21188 39.2341 7.0913C39.8403 6.97072 40.4686 7.0326 41.0396 7.26913C41.6107 7.50565 42.0987 7.90619 42.4421 8.4201C42.7855 8.934 42.9688 9.53819 42.9688 10.1563C42.9688 10.9851 42.6395 11.7799 42.0535 12.366C41.4674 12.952 40.6726 13.2813 39.8438 13.2813ZM39.8438 8.59375C39.5347 8.59375 39.2326 8.68539 38.9757 8.85708C38.7187 9.02877 38.5185 9.2728 38.4002 9.55831C38.2819 9.84382 38.251 10.158 38.3113 10.4611C38.3716 10.7642 38.5204 11.0426 38.7389 11.2611C38.9574 11.4796 39.2358 11.6284 39.5389 11.6887C39.842 11.749 40.1562 11.7181 40.4417 11.5998C40.7272 11.4816 40.9712 11.2813 41.1429 11.0243C41.3146 10.7674 41.4063 10.4653 41.4063 10.1563C41.4063 9.74185 41.2416 9.34442 40.9486 9.0514C40.6556 8.75837 40.2582 8.59375 39.8438 8.59375Z" fill="#0080FF"/>
<path d="M44.5312 5.46875H42.9688V7.03125H44.5312V5.46875Z" fill="#0080FF"/>
<path d="M21.0938 50.0001H2.34375C1.72215 50.0001 1.12601 49.7531 0.686468 49.3136C0.24693 48.8741 0 48.2779 0 47.6563L0 39.8438C0 39.2222 0.24693 38.6261 0.686468 38.1865C1.12601 37.747 1.72215 37.5001 2.34375 37.5001H9.83281L13.5102 33.8227C13.6194 33.7135 13.7586 33.6391 13.9101 33.609C14.0617 33.5789 14.2187 33.5943 14.3614 33.6535C14.5042 33.7126 14.6262 33.8127 14.712 33.9411C14.7979 34.0696 14.8437 34.2206 14.8438 34.3751V37.5001H21.0938C21.7154 37.5001 22.3115 37.747 22.751 38.1865C23.1906 38.6261 23.4375 39.2222 23.4375 39.8438V47.6563C23.4375 48.2779 23.1906 48.8741 22.751 49.3136C22.3115 49.7531 21.7154 50.0001 21.0938 50.0001ZM2.34375 39.0626C2.13655 39.0626 1.93784 39.1449 1.79132 39.2914C1.64481 39.4379 1.5625 39.6366 1.5625 39.8438V47.6563C1.5625 47.8635 1.64481 48.0622 1.79132 48.2088C1.93784 48.3553 2.13655 48.4376 2.34375 48.4376H21.0938C21.301 48.4376 21.4997 48.3553 21.6462 48.2088C21.7927 48.0622 21.875 47.8635 21.875 47.6563V39.8438C21.875 39.6366 21.7927 39.4379 21.6462 39.2914C21.4997 39.1449 21.301 39.0626 21.0938 39.0626H14.0625C13.8553 39.0626 13.6566 38.9803 13.5101 38.8338C13.3636 38.6872 13.2812 38.4885 13.2812 38.2813V36.261L10.7086 38.8337C10.5621 38.9802 10.3634 39.0625 10.1562 39.0626H2.34375Z" fill="#0080FF"/>
<path d="M4.6875 41.4062H3.125V42.9688H4.6875V41.4062Z" fill="#0080FF"/>
<path d="M20.3125 41.4062H6.25V42.9688H20.3125V41.4062Z" fill="#0080FF"/>
<path d="M20.3125 44.5312H3.125V46.0938H20.3125V44.5312Z" fill="#0080FF"/>
</svg>
