<svg width="50" height="50" viewBox="0 0 50 50" fill="none" xmlns="http://www.w3.org/2000/svg">
<path d="M41.1548 46.8321C41.1548 45.1198 42.5381 43.6643 44.3538 43.6643C46.083 43.6643 47.5528 45.0342 47.5528 46.8321C47.5528 48.5444 46.1694 49.9999 44.3538 49.9999C42.6246 49.9999 41.1548 48.6301 41.1548 46.8321ZM42.7111 46.8321C42.7111 47.6883 43.4027 48.4588 44.3538 48.4588C45.2184 48.4588 45.9965 47.7739 45.9965 46.8321C45.9965 45.9759 45.3048 45.2054 44.3538 45.2054C43.4892 45.291 42.7111 45.9759 42.7111 46.8321Z" fill="#0080FF"/>
<path d="M18.6753 46.8321C18.6753 45.1198 20.0586 43.6643 21.8743 43.6643C23.6035 43.6643 25.0733 45.0342 25.0733 46.8321C25.0733 48.5444 23.6899 49.9999 21.8743 49.9999C20.0586 49.9999 18.6753 48.6301 18.6753 46.8321ZM20.1451 46.8321C20.1451 47.6883 20.8368 48.4588 21.7878 48.4588C22.6524 48.4588 23.4306 47.7739 23.4306 46.8321C23.4306 45.9759 22.7389 45.2054 21.7878 45.2054C20.9232 45.291 20.1451 45.9759 20.1451 46.8321Z" fill="#0080FF"/>
<path d="M48.244 42.4657H14.5249C13.8332 42.4657 13.228 41.8664 13.228 41.1815C13.228 40.4965 13.8332 39.8972 14.5249 39.8972H48.244C48.9357 39.8972 49.5409 40.4965 49.5409 41.1815C49.5409 41.8664 48.9357 42.4657 48.244 42.4657Z" fill="#0080FF"/>
<path d="M10.6343 7.53418L49.9732 17.3801V27.1403C50.0597 27.7397 50.2326 31.7636 45.1315 32.8766L12.3635 36.2157L10.6343 7.53418ZM48.6763 27.226V18.4075L11.9312 9.41774L13.5739 34.7602L44.8721 31.5924C49.1086 30.565 48.6763 27.3972 48.6763 27.226Z" fill="#0080FF"/>
<path d="M49.2332 22.7219L49.4697 21.4592L11.8117 14.5411L11.5752 15.8038L49.2332 22.7219Z" fill="#0080FF"/>
<path d="M49.3186 25.4601L49.416 24.1794L11.5667 21.3564L11.4693 22.637L49.3186 25.4601Z" fill="#0080FF"/>
<path d="M12.6348 30.0743L49.3579 28.813L49.313 27.5295L12.5898 28.7908L12.6348 30.0743Z" fill="#0080FF"/>
<path d="M45.4776 16.7808H44.1807V32.1917H45.4776V16.7808Z" fill="#0080FF"/>
<path d="M39.0796 15.1541H37.6963V33.1335H39.0796V15.1541Z" fill="#0080FF"/>
<path d="M32.5084 13.356H31.0386V33.5614H32.5084V13.356Z" fill="#0080FF"/>
<path d="M25.9376 11.9006H24.3813V34.2465H25.9376V11.9006Z" fill="#0080FF"/>
<path d="M18.7614 9.9314H17.1187V35.017H18.7614V9.9314Z" fill="#0080FF"/>
<path d="M12.4504 35.4452L14.0931 35.3595L12.0181 4.02392C12.0181 3.68145 12.0181 2.73967 11.4129 1.88351C11.067 1.54104 10.5483 1.02734 9.51078 1.02734H9.42432H3.11279V2.65406H9.42432C9.94307 2.65406 10.0295 2.91091 10.116 2.91091C10.3754 3.16776 10.3754 3.68145 10.3754 3.85269V3.9383V4.02392L12.4504 35.4452Z" fill="#0080FF"/>
<path d="M0 2.56849C0 3.08219 0.432297 3.51027 0.951052 3.51027H8.47301C8.99176 3.51027 9.42406 3.08219 9.42406 2.56849V0.941781C9.42406 0.428083 8.99176 0 8.47301 0H0.951052C0.432297 0 0 0.428083 0 0.941781V2.56849V2.56849Z" fill="#0080FF"/>
</svg>
