<svg width="50" height="50" viewBox="0 0 50 50" fill="none" xmlns="http://www.w3.org/2000/svg">
<path d="M49.1667 13.8889H43.3333C43.1123 13.8889 42.9004 13.9865 42.7441 14.1601C42.5878 14.3338 42.5 14.5693 42.5 14.8148V16.6667H38.3333C38.1123 16.6667 37.9004 16.7642 37.7441 16.9379C37.5878 17.1115 37.5 17.347 37.5 17.5926H12.5C12.5 17.347 12.4122 17.1115 12.2559 16.9379C12.0996 16.7642 11.8877 16.6667 11.6667 16.6667H7.5V14.8148C7.5 14.5693 7.4122 14.3338 7.25592 14.1601C7.09964 13.9865 6.88768 13.8889 6.66667 13.8889H0.833333C0.61232 13.8889 0.400358 13.9865 0.244078 14.1601C0.0877973 14.3338 0 14.5693 0 14.8148V33.3334C0 33.5789 0.0877973 33.8144 0.244078 33.9881C0.400358 34.1617 0.61232 34.2593 0.833333 34.2593H6.66667C6.88768 34.2593 7.09964 34.1617 7.25592 33.9881C7.4122 33.8144 7.5 33.5789 7.5 33.3334V31.4815H11.6667C11.8877 31.4815 12.0996 31.384 12.2559 31.2103C12.4122 31.0367 12.5 30.8012 12.5 30.5556H16.63L22.6858 37.2843C22.9173 37.542 23.1923 37.7465 23.495 37.886C23.7978 38.0255 24.1223 38.0973 24.45 38.0973C24.7777 38.0973 25.1022 38.0255 25.405 37.886C25.7077 37.7465 25.9827 37.542 26.2142 37.2843L26.81 36.6269C26.9648 36.7997 27.149 36.9367 27.3519 37.0298C27.5547 37.1229 27.7722 37.1704 27.9917 37.1695C28.2112 37.1701 28.4288 37.1223 28.6316 37.0288C28.8344 36.9353 29.0186 36.7981 29.1733 36.625L30.3475 35.3287L30.9308 35.9704C31.0855 36.1433 31.2695 36.2804 31.4722 36.3737C31.6749 36.467 31.8923 36.5147 32.1117 36.5139V36.5139C32.3314 36.5148 32.5491 36.4672 32.7522 36.3737C32.9552 36.2802 33.1394 36.1428 33.2942 35.9695L34.4683 34.6732L35.0517 35.3148C35.2064 35.4877 35.3904 35.6247 35.5931 35.718C35.7958 35.8113 36.0131 35.859 36.2325 35.8584V35.8584C36.4519 35.8594 36.6692 35.8119 36.8719 35.7188C37.0747 35.6256 37.2587 35.4886 37.4133 35.3158L38.5883 34.0102L38.595 34.0019C38.8891 33.6682 39.0597 33.224 39.0729 32.7572C39.0862 32.2904 38.9412 31.8351 38.6667 31.4815H42.5V33.3334C42.5 33.5789 42.5878 33.8144 42.7441 33.9881C42.9004 34.1617 43.1123 34.2593 43.3333 34.2593H49.1667C49.3877 34.2593 49.5996 34.1617 49.7559 33.9881C49.9122 33.8144 50 33.5789 50 33.3334V14.8148C50 14.5693 49.9122 14.3338 49.7559 14.1601C49.5996 13.9865 49.3877 13.8889 49.1667 13.8889ZM42.5 19.4445V28.7037H39.1667V19.4445H42.5ZM37.5 28.7037H36.1783L29.7558 21.5676C29.5996 21.394 29.3877 21.2964 29.1667 21.2963H26.3833C26.1623 21.2964 25.9504 21.394 25.7942 21.5676L23.3692 24.2528C23.2942 24.3397 23.2033 24.4078 23.1027 24.4525C23.0021 24.4973 22.8941 24.5176 22.7858 24.5121C22.77 24.5121 22.7308 24.4945 22.7383 24.5121L22.6775 24.5047C22.4947 24.4899 22.323 24.4013 22.195 24.2556C22.0604 24.1107 21.9773 23.9167 21.9608 23.7093C21.9586 23.6682 21.9538 23.6274 21.9467 23.5871C21.9505 23.3446 22.0403 23.1137 22.1967 22.9445L25.345 19.4445H37.5V28.7037ZM7.5 28.7037V19.4445H10.8333V28.7037H7.5ZM5.83333 32.4074H1.66667V15.7408H5.83333V32.4074ZM36.235 33.9972L35.6517 33.3556C35.4969 33.1829 35.3129 33.046 35.1102 32.9528C34.9075 32.8597 34.6902 32.8122 34.4708 32.813V32.813C34.2511 32.8124 34.0334 32.8602 33.8303 32.9534C33.6272 33.0467 33.4428 33.1837 33.2875 33.3565L32.1142 34.6528L31.5308 34.0102C31.376 33.8374 31.1918 33.7004 30.989 33.6073C30.7861 33.5142 30.5686 33.4667 30.3492 33.4676V33.4676C30.1296 33.467 29.9121 33.5148 29.7092 33.6083C29.5064 33.7017 29.3223 33.839 29.1675 34.0121L27.9817 35.2982C27.6628 34.9672 27.2419 34.7845 26.8056 34.7878C26.3693 34.7911 25.9506 34.98 25.6358 35.3158L25.0442 35.9732C24.8865 36.141 24.6767 36.2347 24.4583 36.2347C24.24 36.2347 24.0301 36.141 23.8725 35.9732L17.5725 28.9732C17.494 28.8864 17.4007 28.8179 17.2982 28.7716C17.1956 28.7254 17.0857 28.7023 16.975 28.7037H12.5V19.4445H22.9883L21.02 21.6315C20.7866 21.888 20.6013 22.1935 20.4749 22.5301C20.3484 22.8667 20.2833 23.2278 20.2833 23.5926C20.2815 23.7022 20.2899 23.8118 20.3083 23.9195C20.3683 24.5415 20.6193 25.1216 21.0192 25.5621C21.4099 25.9985 21.9234 26.273 22.4742 26.3398C22.5742 26.367 22.6776 26.3748 22.78 26.363C23.1081 26.3698 23.4341 26.3023 23.7379 26.1646C24.0418 26.0269 24.3173 25.8219 24.5475 25.5621L26.7283 23.1482H28.8208L37.41 32.7065L36.235 33.9972ZM48.3333 32.4074H44.1667V15.7408H48.3333V32.4074Z" fill="#0080FF"/>
<path d="M41.6667 20.3704H40V22.2222H41.6667V20.3704Z" fill="#0080FF"/>
<path d="M10.0002 20.3704H8.3335V22.2222H10.0002V20.3704Z" fill="#0080FF"/>
<path d="M15.5887 33.6044L14.4102 34.9138L19.124 40.1518L20.3026 38.8424L15.5887 33.6044Z" fill="#0080FF"/>
<path d="M13.8211 35.569L12.6426 36.8784L18.5349 43.4259L19.7135 42.1165L13.8211 35.569Z" fill="#0080FF"/>
<path d="M33.3332 12.9629H26.6665V14.8147H33.3332V12.9629Z" fill="#0080FF"/>
<path d="M34.9998 10.1853H26.6665V12.0372H34.9998V10.1853Z" fill="#0080FF"/>
<path d="M15.0002 3.70361H13.3335V5.55547H15.0002V3.70361Z" fill="#0080FF"/>
<path d="M16.6667 5.55566H15V7.40752H16.6667V5.55566Z" fill="#0080FF"/>
<path d="M13.3332 5.55566H11.6665V7.40752H13.3332V5.55566Z" fill="#0080FF"/>
<path d="M15.0002 7.40747H13.3335V9.25932H15.0002V7.40747Z" fill="#0080FF"/>
<path d="M43.3332 0H41.6665V1.85185H43.3332V0Z" fill="#0080FF"/>
<path d="M45.0002 1.85181H43.3335V3.70366H45.0002V1.85181Z" fill="#0080FF"/>
<path d="M41.6667 1.85181H40V3.70366H41.6667V1.85181Z" fill="#0080FF"/>
<path d="M43.3332 3.70361H41.6665V5.55547H43.3332V3.70361Z" fill="#0080FF"/>
<path d="M30.8332 2.77783H29.1665V4.62968H30.8332V2.77783Z" fill="#0080FF"/>
<path d="M32.5002 4.62964H30.8335V6.48149H32.5002V4.62964Z" fill="#0080FF"/>
<path d="M29.1667 4.62964H27.5V6.48149H29.1667V4.62964Z" fill="#0080FF"/>
<path d="M30.8332 6.48145H29.1665V8.3333H30.8332V6.48145Z" fill="#0080FF"/>
<path d="M40.8332 38.8889H39.1665V40.7408H40.8332V38.8889Z" fill="#0080FF"/>
<path d="M42.5002 40.7407H40.8335V42.5926H42.5002V40.7407Z" fill="#0080FF"/>
<path d="M39.1667 40.7407H37.5V42.5926H39.1667V40.7407Z" fill="#0080FF"/>
<path d="M40.8332 42.5925H39.1665V44.4444H40.8332V42.5925Z" fill="#0080FF"/>
<path d="M29.1667 44.4443H27.5V46.2962H29.1667V44.4443Z" fill="#0080FF"/>
<path d="M30.8332 46.2964H29.1665V48.1482H30.8332V46.2964Z" fill="#0080FF"/>
<path d="M27.5002 46.2964H25.8335V48.1482H27.5002V46.2964Z" fill="#0080FF"/>
<path d="M29.1667 48.1482H27.5V50H29.1667V48.1482Z" fill="#0080FF"/>
<path d="M8.33317 40.7407H6.6665V42.5926H8.33317V40.7407Z" fill="#0080FF"/>
<path d="M10.0002 42.5925H8.3335V44.4444H10.0002V42.5925Z" fill="#0080FF"/>
<path d="M6.66667 42.5925H5V44.4444H6.66667V42.5925Z" fill="#0080FF"/>
<path d="M8.33317 44.4443H6.6665V46.2962H8.33317V44.4443Z" fill="#0080FF"/>
</svg>
