<svg width="50" height="50" viewBox="0 0 50 50" fill="none" xmlns="http://www.w3.org/2000/svg">
<path d="M45.9677 12.9032H43.5484V6.45161H36.6097C34.1831 2.58468 29.8927 0 25 0C20.1073 0 15.8169 2.58468 13.3903 6.45161H6.45161V12.9032H4.03226C1.80887 12.9032 0 14.7121 0 16.9355V41.129C0 43.3524 1.80887 45.1613 4.03226 45.1613H14.5161V48.3871H11.2903V50H38.7097V48.3871H35.4839V45.1613H45.9677C48.1911 45.1613 50 43.3524 50 41.129V16.9355C50 14.7121 48.1911 12.9032 45.9677 12.9032ZM45.9677 14.5161C47.3016 14.5161 48.3871 15.6016 48.3871 16.9355V38.7097H43.5484V14.5161H45.9677ZM36.2444 9.27661L36.2435 9.27742C34.7581 10.2669 33.871 11.9242 33.871 13.7097C33.871 14.154 33.5089 14.5161 33.0645 14.5161H32.9266C32.7113 14.5161 32.5081 14.4323 32.3556 14.2798L31.7331 13.6573C30.7411 12.6653 29.3685 12.0968 27.9661 12.0968H26.6129C26.1685 12.0968 25.8065 11.7347 25.8065 11.2903C25.8065 11.0379 25.9266 10.7968 26.129 10.6452C27.9468 9.28145 29.0323 7.11129 29.0323 4.83871V2.31855C32.325 3.4879 34.9621 6.0379 36.2444 9.27661ZM27.4194 1.85645V4.83871C27.4194 6.60565 26.575 8.29436 25.1605 9.35484C24.5548 9.80968 24.1935 10.5331 24.1935 11.2903C24.1935 12.6242 25.279 13.7097 26.6129 13.7097H27.9661C28.9435 13.7097 29.9008 14.1065 30.5919 14.7976L31.2145 15.4202C31.6718 15.8774 32.2798 16.129 32.9266 16.129H33.0645C34.3984 16.129 35.4839 15.0435 35.4839 13.7097C35.4839 12.6266 35.9524 11.6113 36.7573 10.9113C36.971 11.8113 37.0968 12.7452 37.0968 13.7097C37.0968 16.4347 36.1806 18.9435 34.654 20.9677H31.9887C31.2484 20.9677 30.6452 20.3645 30.6452 19.6234C30.6452 18.6976 30.2032 17.8129 29.4621 17.2581L28.0008 16.1621C27.2798 15.621 26.3855 15.3226 25.4831 15.3226C23.8831 15.3226 22.4444 16.2121 21.729 17.6427C21.4492 18.2016 20.8879 18.5484 20.2629 18.5484H19.8919C18.7984 18.5484 17.7524 19.071 17.0968 19.946L15.854 21.6032C14.354 19.8677 13.3435 17.7048 13.0234 15.3226H14.5161C15.8371 15.3226 16.9831 14.4282 17.3016 13.15L17.3266 13.0508C17.4669 12.4887 17.9694 12.0968 18.5484 12.0968C19.8694 12.0968 21.0153 11.2024 21.3347 9.92177L21.4339 9.52903C21.5516 9.05887 21.9339 8.69435 22.4081 8.59919L23.7339 8.33387C24.9347 8.09355 25.8065 7.02984 25.8065 5.80484C25.8065 4.38306 24.6492 3.22581 23.2274 3.22581C22.5879 3.22581 21.9944 2.90806 21.6395 2.37581L21.4815 2.13871C22.5952 1.79919 23.7758 1.6129 25 1.6129C25.8282 1.6129 26.6371 1.69758 27.4194 1.85645ZM25 25.8065C21.9323 25.8065 19.1363 24.6492 17.0016 22.7605L18.3871 20.9137C18.7403 20.4427 19.3032 20.1613 19.8927 20.1613H20.2637C21.5032 20.1613 22.6169 19.4726 23.1718 18.3637C23.6121 17.4831 24.4976 16.9355 25.4831 16.9355C26.0387 16.9355 26.5895 17.1194 27.0331 17.4524L28.4944 18.5484C28.8315 18.8008 29.0323 19.2032 29.0323 19.6234C29.0323 21.254 30.3589 22.5806 31.9895 22.5806H33.1968C31.0387 24.5758 28.1637 25.8065 25 25.8065ZM19.9411 2.73629L20.2976 3.27016C20.9516 4.25242 22.0468 4.83871 23.2274 4.83871C23.7597 4.83871 24.1935 5.27258 24.1935 5.80484C24.1935 6.26371 23.8669 6.6621 23.4169 6.75242L22.0911 7.01774C21.0089 7.23468 20.1363 8.06613 19.8685 9.1371L19.7702 9.53065C19.6298 10.0919 19.1274 10.4839 18.5484 10.4839C17.2274 10.4839 16.0815 11.3782 15.7629 12.6565L15.7379 12.7556C15.5976 13.3177 15.0952 13.7097 14.5161 13.7097H12.9032C12.9032 8.84677 15.7935 4.65645 19.9411 2.73629ZM12.521 8.06452C11.7379 9.78871 11.2903 11.696 11.2903 13.7097C11.2903 18.6024 13.875 22.8927 17.7419 25.3194V29.0323C17.7419 29.4766 17.3798 29.8387 16.9355 29.8387H14.0435L15.0863 28.796L13.946 27.6556L10.9565 30.6452L13.946 33.6347L15.0863 32.4944L14.0435 31.4516H16.9355C18.2694 31.4516 19.3548 30.3661 19.3548 29.0323V26.1887C20.846 26.8661 22.4766 27.2774 24.1935 27.3782V34.3435L23.1508 33.3008L22.0105 34.4411L25 37.4306L27.9895 34.4411L26.8492 33.3008L25.8065 34.3435V27.3782C27.5234 27.2774 29.154 26.8661 30.6452 26.1887V29.0323C30.6452 30.3661 31.7306 31.4516 33.0645 31.4516H35.9565L34.9137 32.4944L36.054 33.6347L39.0435 30.6452L36.054 27.6556L34.9137 28.796L35.9565 29.8387H33.0645C32.6202 29.8387 32.2581 29.4766 32.2581 29.0323V25.3194C36.125 22.8927 38.7097 18.6024 38.7097 13.7097C38.7097 11.696 38.2621 9.78871 37.479 8.06452H41.9355V38.7097H8.06452V8.06452H12.521ZM4.03226 14.5161H6.45161V38.7097H1.6129V16.9355C1.6129 15.6016 2.69839 14.5161 4.03226 14.5161ZM33.871 48.3871H16.129V45.1613H33.871V48.3871ZM45.9677 43.5484H4.03226C2.69839 43.5484 1.6129 42.4629 1.6129 41.129V40.3226H48.3871V41.129C48.3871 42.4629 47.3016 43.5484 45.9677 43.5484Z" fill="#0080FF"/>
</svg>
