<svg width="50" height="50" viewBox="0 0 50 50" fill="none" xmlns="http://www.w3.org/2000/svg">
<path d="M18.1504 7.19251C18.2 7.19251 18.2496 7.19056 18.2998 7.18666C18.8397 7.1431 19.3318 6.86809 19.6861 6.41169C20.0404 5.9553 20.2143 5.37278 20.1752 4.7714C20.1361 4.17003 19.8892 3.62196 19.4794 3.22668C18.6331 2.41336 17.3525 2.51673 16.6205 3.45748C16.2662 3.91387 16.0923 4.49639 16.1314 5.09777C16.1705 5.6998 16.418 6.24786 16.8271 6.64184C17.199 7.00007 17.6636 7.19251 18.1504 7.19251ZM17.5241 4.32866C17.6887 4.11737 17.9204 4.00879 18.1539 4.00879C18.3471 4.00879 18.5403 4.08291 18.6973 4.23374C19.044 4.56791 19.0825 5.15433 18.7825 5.54051C18.6366 5.72775 18.4346 5.84087 18.2134 5.85843C17.9922 5.87858 17.7774 5.79732 17.6093 5.63478C17.4412 5.47355 17.3396 5.2486 17.3239 5.00155C17.3075 4.75515 17.3787 4.5159 17.5241 4.32866Z" fill="#0080FF"/>
<path d="M27.4426 3.2272C26.5974 4.04117 26.5046 5.46952 27.2354 6.41156C27.5897 6.86731 28.0818 7.14296 28.6222 7.18652C28.6724 7.19042 28.7221 7.19237 28.7717 7.19237C29.2579 7.19237 29.7231 6.99993 30.0949 6.64171C30.9395 5.82774 31.0329 4.39939 30.3015 3.45735C29.569 2.51595 28.2866 2.41323 27.4426 3.2272ZM29.3128 5.6353C29.1447 5.79718 28.9287 5.8778 28.7086 5.8583C28.4868 5.84074 28.2849 5.72762 28.1401 5.54038C28.1401 5.54038 28.1401 5.54038 28.1395 5.54038C27.8395 5.1542 27.878 4.56778 28.2248 4.23426C28.3818 4.08278 28.5756 4.00866 28.7682 4.00866C29.0016 4.00866 29.2334 4.11723 29.3974 4.32853C29.6974 4.71471 29.6595 5.30113 29.3128 5.6353Z" fill="#0080FF"/>
<path d="M43.024 25.7038L43.2969 23.0558H46.3245C46.6549 23.0558 46.9222 22.758 46.9222 22.39V15.8815C46.9222 15.5136 46.6549 15.2158 46.3245 15.2158H40.4338L33.1263 5.8059C33.3533 4.39003 33.0284 2.87619 32.1198 1.70599C31.3453 0.709328 30.269 0.107302 29.0887 0.0123826C27.9109 -0.0779863 26.7657 0.340051 25.8703 1.20213C24.9749 2.06421 24.435 3.26371 24.3492 4.57828C24.264 5.89286 24.6434 7.16582 25.4179 8.16313C26.2929 9.28982 27.5291 9.86779 28.7724 9.86779C28.8195 9.86779 28.8666 9.86267 28.9137 9.861L33.0719 15.2158H13.8503L18.0066 9.86348C18.0533 9.8651 18.0994 9.87039 18.1463 9.87039C18.2549 9.87039 18.364 9.86584 18.4732 9.85673C19.6534 9.76181 20.7303 9.15979 21.5043 8.16313H21.5049C22.2788 7.16582 22.6577 5.89286 22.5724 4.57828C22.4872 3.26371 21.9467 2.06486 21.0519 1.20278C20.1565 0.340051 19.0125 -0.0792866 17.8335 0.0123826C16.6532 0.107302 15.5763 0.709328 14.8018 1.70599C13.8936 2.87611 13.5691 4.38987 13.796 5.8057L6.48844 15.2158H0.597698C0.26733 15.2158 0 15.5136 0 15.8815V22.39C0 22.758 0.26733 23.0558 0.597698 23.0558H3.62529L6.33828 49.4103C6.37272 49.7464 6.62838 50 6.93189 50H39.9903C40.2938 50 40.5495 49.7464 40.5839 49.4103L40.9271 46.0732C45.9497 45.9355 50 41.3512 50 35.7243C50 30.9073 47.0291 26.8591 43.024 25.7038ZM26.3215 7.29195C25.7565 6.5638 25.4792 5.6341 25.5417 4.6745C25.6041 3.71425 25.9987 2.83917 26.6524 2.20919C27.2455 1.63772 27.9879 1.33086 28.7642 1.33086C28.843 1.33086 28.923 1.33411 29.0024 1.34061C29.8645 1.41017 30.6501 1.84902 31.2157 2.57717C32.3825 4.07963 32.2348 6.36031 30.8853 7.66058C29.5364 8.9602 27.4889 8.79506 26.3215 7.29195ZM30.2728 9.57636C30.7705 9.37697 31.2442 9.07519 31.6675 8.66699C32.0914 8.25866 32.4243 7.77764 32.6732 7.25713L40.26 17.0271L37.8569 19.3429L30.2728 9.57636ZM15.7059 2.57717C16.3451 1.75475 17.2474 1.33281 18.1551 1.33281C18.9057 1.33281 19.6592 1.62082 20.2698 2.20984C21.6193 3.50881 21.7675 5.78884 20.6007 7.29195C19.4328 8.79506 17.3869 8.9602 16.0369 7.66058C14.688 6.36031 14.5397 4.08028 15.7059 2.57717ZM14.2492 7.25692C14.498 7.77752 14.8309 8.25862 15.2547 8.66699C15.6722 9.0695 16.1444 9.37442 16.6486 9.57746L9.06528 19.3429L6.66223 17.0271L14.2492 7.25692ZM1.1954 21.7243V16.5473H5.45443L5.36761 16.6591C5.15164 16.9374 5.17849 17.3573 5.42831 17.5979L8.7355 20.7849C8.84465 20.8902 8.98356 20.9474 9.12657 20.9474C9.14116 20.9474 9.15517 20.9467 9.16976 20.9454C9.32794 20.9331 9.47503 20.8505 9.57834 20.7172L12.8164 16.5473H34.1058L37.3439 20.7172C37.4472 20.8505 37.5943 20.9331 37.7524 20.9454C37.767 20.9467 37.781 20.9474 37.7956 20.9474C37.9386 20.9474 38.0776 20.8902 38.1867 20.7849L41.4939 17.5979C41.7437 17.3573 41.7706 16.9374 41.5546 16.6591L41.4678 16.5473H45.7268V21.7243H1.1954ZM39.4574 48.6685H7.4648L4.82817 23.0558H42.094L41.8472 25.4502C41.4695 25.398 41.0874 25.3625 40.6972 25.3625C36.6832 25.3625 33.2649 28.2144 31.9635 32.1902H12.7711C12.0859 32.1902 11.5279 31.5687 11.5279 30.8054C11.5279 30.4374 11.2605 30.1397 10.9302 30.1397C10.5998 30.1397 10.3325 30.4374 10.3325 30.8054C10.3325 32.3033 11.4263 33.5217 12.7711 33.5217H31.6108C31.4719 34.2323 31.3943 34.968 31.3943 35.7243C31.3943 37.7957 31.9486 39.7227 32.8923 41.3433C32.7666 41.3912 32.6351 41.4202 32.4998 41.4202H14.4224C13.7465 41.4202 13.196 40.8071 13.196 40.0542C13.196 39.6863 12.9287 39.3885 12.5984 39.3885C12.268 39.3885 12.0007 39.6863 12.0007 40.0542C12.0007 41.5417 13.0869 42.7516 14.4224 42.7516H32.4998C32.8955 42.7516 33.2758 42.634 33.6197 42.4322C35.1303 44.4064 37.289 45.7469 39.7288 46.0294L39.4574 48.6685ZM40.6972 44.7547C36.2267 44.7547 32.5897 40.7037 32.5897 35.7243C32.5897 30.7449 36.2267 26.6939 40.6972 26.6939C45.1676 26.6939 48.8046 30.7449 48.8046 35.7243C48.8046 40.7037 45.1676 44.7547 40.6972 44.7547Z" fill="#0080FF"/>
<path d="M44.9156 38.4965H36.4795C36.1492 38.4965 35.8818 38.7942 35.8818 39.1622V41.2615C35.8818 41.6295 36.1492 41.9272 36.4795 41.9272H44.9156C45.246 41.9272 45.5133 41.6295 45.5133 41.2615V39.1622C45.5133 38.7942 45.246 38.4965 44.9156 38.4965ZM44.3179 40.5957H37.0772V39.8279H44.3179V40.5957Z" fill="#0080FF"/>
<path d="M37.287 34.8797H38.7486V37.2378C38.7486 37.6057 39.0159 37.9035 39.3463 37.9035H42.0482C42.3786 37.9035 42.6459 37.6057 42.6459 37.2378V34.8797H44.1075C44.3462 34.8797 44.5616 34.7217 44.6561 34.4779C44.7507 34.2335 44.7057 33.9507 44.5423 33.7569L41.1318 29.7293C40.9053 29.4628 40.4874 29.4628 40.2621 29.7293L36.8522 33.7569C36.6888 33.9507 36.6438 34.2335 36.7384 34.4779C36.8329 34.7217 37.0483 34.8797 37.287 34.8797ZM40.697 31.1564L42.7224 33.5482H42.0482C41.7178 33.5482 41.4505 33.846 41.4505 34.214V36.572H39.944V34.214C39.944 33.846 39.6767 33.5482 39.3463 33.5482H38.6721L40.697 31.1564Z" fill="#0080FF"/>
</svg>
