<svg width="50" height="50" viewBox="0 0 50 50" fill="none" xmlns="http://www.w3.org/2000/svg">
<path d="M27.5649 20.4989C26.7671 18.1747 25.6655 16.1824 24.291 14.5772L25.0956 13.8882C26.5575 15.5953 27.7254 17.7037 28.5669 20.1548L27.5649 20.4989Z" fill="#0080FF"/>
<path d="M23.2986 13.5293C23.0331 13.2766 22.7557 13.0329 22.4741 12.8052L23.1403 11.9816C23.444 12.2272 23.7429 12.4899 24.0289 12.7622L23.2986 13.5293Z" fill="#0080FF"/>
<path d="M21.5224 12.1296C21.2177 11.9272 20.9023 11.7354 20.585 11.5598L21.0979 10.6329C21.4401 10.8223 21.7803 11.0291 22.1086 11.2474L21.5224 12.1296Z" fill="#0080FF"/>
<path d="M20.8192 38.4991C20.7038 38.4991 20.5876 38.4616 20.4904 38.3844C20.2613 38.2025 20.2229 37.8693 20.4047 37.6402C21.2869 36.5285 21.6151 34.8091 21.3803 32.5298C20.931 28.1682 18.3246 24.1534 14.4083 21.7901C12.0125 20.3445 10.6046 18.5732 10.2237 16.5255C9.90443 14.8095 10.3906 13.2578 10.8546 12.2585C10.9778 11.9932 11.2925 11.8778 11.5581 12.0011C11.8234 12.1243 11.9386 12.4392 11.8155 12.7046C10.7759 14.9439 10.4767 18.1805 14.9556 20.8831C19.1552 23.4174 21.9508 27.7307 22.4341 32.4212C22.6983 34.9853 22.2947 36.9629 21.2345 38.2988C21.13 38.4303 20.9753 38.4991 20.8192 38.4991Z" fill="#0080FF"/>
<path d="M19.844 21.7664C19.6006 21.5404 19.3461 21.3196 19.0879 21.11L19.7553 20.2874C20.0318 20.5117 20.3041 20.7481 20.5646 20.9899L19.844 21.7664Z" fill="#0080FF"/>
<path d="M18.2792 20.4981C17.9846 20.2903 17.6784 20.0903 17.3693 19.9038C15.7773 18.9432 14.6124 17.8576 13.9067 16.6766L14.816 16.1333C15.4317 17.1635 16.4748 18.1268 17.9165 18.9967C18.2472 19.1962 18.5746 19.4101 18.8898 19.6327L18.2792 20.4981Z" fill="#0080FF"/>
<path d="M13.4934 15.8521C13.3655 15.5396 13.2649 15.2159 13.1948 14.8902L14.2303 14.6672C14.2874 14.9321 14.3693 15.1957 14.4736 15.4507L13.4934 15.8521Z" fill="#0080FF"/>
<path d="M13.068 13.7903C13.0594 13.3442 13.1015 12.88 13.1931 12.4105L14.2328 12.6133C14.1554 13.0095 14.12 13.3987 14.1271 13.7698L13.068 13.7903Z" fill="#0080FF"/>
<path d="M16.9378 40.9667C16.7479 40.9667 16.5654 40.8642 16.4705 40.6868C16.3398 40.4427 16.4193 40.139 16.6529 39.9901C18.2068 39.0005 18.8408 37.0061 18.5375 34.0623C18.088 29.7005 15.4817 25.6858 11.5655 23.3226C9.2626 21.933 7.88373 20.2043 7.46722 18.1846C6.84394 15.1625 8.62174 12.6329 8.69779 12.5268C8.77565 12.418 8.89186 12.3425 9.02299 12.316C20.1599 10.0507 24.4067 16.6876 26.0079 22.6535C26.4122 24.1601 26.5847 25.7117 26.5203 27.2654C26.5082 27.5576 26.2637 27.7841 25.9691 27.7727C25.6769 27.7606 25.4498 27.5139 25.4618 27.2215C25.5217 25.7753 25.3611 24.3307 24.9847 22.9281C22.8459 14.959 17.6205 11.724 9.45105 13.3109C9.10244 13.8796 8.0565 15.8197 8.50659 17.9808C8.86378 19.6952 10.077 21.1873 12.1126 22.4156C16.3121 24.9497 19.1078 29.263 19.5912 33.9537C19.786 35.8445 19.6217 37.4075 19.102 38.6318C21.468 37.018 23.3103 34.7504 24.4076 32.0569C24.518 31.786 24.8269 31.656 25.098 31.7662C25.3689 31.8766 25.499 32.1857 25.3886 32.4567C23.8425 36.2522 20.9171 39.2585 17.1514 40.9216C17.082 40.9521 17.0094 40.9667 16.9378 40.9667Z" fill="#0080FF"/>
<path d="M9.66975 44.7031C9.46817 44.7031 9.28407 44.5887 9.19488 44.4078C9.10558 44.2269 9.12676 44.011 9.24964 43.8509L10.0654 42.7881C11.8234 40.498 12.8786 37.7139 13.0922 34.8465C12.2859 35.438 11.1328 36.1685 9.85481 36.6209C8.65559 37.0455 7.35394 36.6849 6.5384 35.702C5.83758 34.8576 5.65072 33.7473 6.01035 32.7518C5.78758 32.6245 5.5646 32.4297 5.44278 32.1345C5.32096 31.8396 5.32541 31.5165 5.45518 31.1687C5.11313 31.0288 4.74884 30.7849 4.57427 30.3619C4.37259 29.8728 4.48741 29.2998 4.91547 28.6532L3.70026 27.9548C3.3454 27.7508 3.0918 27.4211 2.98609 27.0265C2.88058 26.6328 2.93524 26.2216 3.1399 25.8687L3.23714 25.701C3.25769 25.6656 3.28226 25.6326 3.31044 25.6029C4.41877 24.431 5.12743 22.9033 5.30582 21.3007C5.50708 19.4917 6.25949 17.8524 7.48169 16.5601C7.68264 16.3474 8.0179 16.3381 8.2304 16.5392C8.44289 16.7401 8.45232 17.0755 8.25127 17.2879C7.17355 18.4276 6.53671 19.8171 6.35853 21.4178C6.15716 23.2271 5.36387 24.953 4.12291 26.2851L4.05607 26.4003C3.99379 26.5076 3.97715 26.6326 4.00925 26.7523C4.04156 26.8728 4.11931 26.9737 4.2281 27.0363L5.96543 28.0349C6.10229 28.1134 6.19689 28.249 6.22358 28.4044C6.25028 28.56 6.20631 28.7193 6.10356 28.839C5.59987 29.4261 5.48907 29.802 5.55337 29.9579C5.63292 30.1508 6.07274 30.2793 6.29657 30.2971C6.48893 30.3124 6.65789 30.4312 6.73733 30.607C6.81678 30.783 6.79432 30.9883 6.67854 31.1427C6.42463 31.4816 6.39932 31.6747 6.42146 31.7296C6.45503 31.813 6.66213 31.907 6.81795 31.9322C6.98997 31.9602 7.13955 32.0713 7.21412 32.229C7.28869 32.3866 7.28318 32.571 7.19569 32.7217L7.15988 32.7834C6.65429 33.6551 6.92832 34.5133 7.35352 35.0255C7.77438 35.5328 8.55962 35.9558 9.50122 35.6224C11.2914 34.9885 12.8744 33.6986 13.3169 33.3183C13.4735 33.1835 13.6943 33.1523 13.8824 33.2383C14.0703 33.3243 14.1911 33.5117 14.1917 33.7184C14.2018 37.2092 13.0349 40.6593 10.9057 43.4332L10.7448 43.6428L20.3252 43.634C20.3253 43.634 20.3255 43.634 20.3256 43.634C20.6179 43.634 20.8551 43.8708 20.8553 44.1631C20.8555 44.4557 20.6186 44.693 20.3261 44.6933L9.67018 44.7031C9.66997 44.7031 9.66986 44.7031 9.66975 44.7031Z" fill="#0080FF"/>
<path d="M24.0803 41.6462C23.877 41.6462 23.683 41.5284 23.5955 41.3304C22.8034 39.5361 22.4101 37.6313 22.4263 35.669C22.4287 35.3764 22.6649 35.1404 22.9604 35.1437C23.2528 35.1461 23.488 35.3852 23.4855 35.6777C23.4705 37.4888 23.8335 39.2467 24.5645 40.9026C24.6826 41.1702 24.5615 41.483 24.2939 41.6011C24.2244 41.6317 24.1517 41.6462 24.0803 41.6462Z" fill="#0080FF"/>
<path d="M10.6618 40.6129C10.5902 40.6129 10.5176 40.5983 10.4481 40.5677L9.80329 40.283C5.94812 38.5803 2.92323 35.5137 1.286 31.6479C-0.358439 27.7653 -0.428034 23.4798 1.09013 19.5809C2.58743 15.7357 5.2473 13.2934 8.9959 12.3222C9.27883 12.2485 9.56802 12.4188 9.64143 12.7021C9.71473 12.9853 9.54471 13.2742 9.26157 13.3477C5.86116 14.2288 3.44408 16.4553 2.07728 19.9654C-0.633429 26.9271 2.21753 34.7115 8.58744 38.4701C8.29391 37.8442 8.09784 37.1241 8.00091 36.3125C7.96627 36.0221 8.17358 35.7585 8.46403 35.7238C8.75417 35.6899 9.01793 35.8964 9.05278 36.1869C9.24515 37.7981 9.88231 38.9587 10.9467 39.6365C11.1804 39.7853 11.2598 40.089 11.1291 40.3332C11.0342 40.5104 10.8517 40.6129 10.6618 40.6129Z" fill="#0080FF"/>
<path d="M37.37 30.1717L36.7642 31.2721L37.692 31.783L38.2978 30.6826L37.37 30.1717Z" fill="#0080FF"/>
<path d="M36.0498 32.57L35.5059 33.5579L36.4337 34.0687L36.9776 33.0808L36.0498 32.57Z" fill="#0080FF"/>
<path d="M34.7783 34.8789L32.5054 39.0074L33.4332 39.5183L35.7062 35.3898L34.7783 34.8789Z" fill="#0080FF"/>
<path d="M23.3148 47.8516C23.3126 47.8516 23.3104 47.8516 23.3082 47.8516C22.3174 47.8481 21.5084 47.0391 21.5049 46.0482C21.5032 45.5664 21.6894 45.114 22.0292 44.7743C22.3675 44.436 22.8172 44.25 23.2966 44.25C23.2988 44.25 23.3009 44.25 23.3031 44.25C24.294 44.2535 25.103 45.0625 25.1065 46.0534C25.1082 46.5352 24.9219 46.9876 24.5821 47.3273C24.2439 47.6656 23.794 47.8516 23.3148 47.8516ZM22.5642 46.0444C22.5657 46.4553 22.9011 46.7908 23.312 46.7923C23.5068 46.793 23.6944 46.7169 23.8331 46.5782C23.9718 46.4394 24.0478 46.2543 24.0472 46.057C24.0457 45.6461 23.7102 45.3106 23.2993 45.3091C23.1007 45.3078 22.9169 45.3844 22.7783 45.5232C22.6395 45.6619 22.5635 45.847 22.5642 46.0444Z" fill="#0080FF"/>
<path d="M31.5254 36.3132L30.5974 35.8024L34.7037 28.3437C35.7415 26.4583 36.0413 24.2742 35.5734 22.1998L29.4851 32.7835L28.5669 32.2554L35.2689 20.605C35.3712 20.4272 35.5668 20.3254 35.7714 20.3412C35.9759 20.358 36.1522 20.4914 36.224 20.6836C37.2279 23.3691 37.0119 26.3472 35.6316 28.8546L31.5254 36.3132Z" fill="#0080FF"/>
<path d="M23.2123 49.9999C21.0474 49.9999 19.2861 48.1965 19.2861 45.9797C19.2861 44.8931 19.7186 43.8626 20.473 43.1522C21.1191 42.5436 21.9555 42.2054 22.8562 42.182L26.5313 35.7933L27.4495 36.3215L23.6188 42.9805C23.5187 43.1546 23.3289 43.2576 23.1281 43.2451C22.3952 43.2007 21.7101 43.4419 21.1992 43.9232C20.6565 44.4342 20.3454 45.1838 20.3454 45.9796C20.3454 47.6123 21.6315 48.9404 23.2123 48.9404C24.793 48.9404 26.0791 47.6123 26.0791 45.9796C26.0791 45.6739 26.0349 45.3856 25.819 44.9715C25.737 44.8143 25.7391 44.6264 25.8246 44.4711L28.5619 39.4989L29.4898 40.0097L26.8838 44.7436C27.0609 45.1515 27.1384 45.5344 27.1384 45.9795C27.1384 48.1965 25.3771 49.9999 23.2123 49.9999Z" fill="#0080FF"/>
<path d="M29.0709 36.5105C29.3338 36.5105 29.547 36.2928 29.547 36.0242C29.547 35.7556 29.3338 35.5378 29.0709 35.5378C28.8079 35.5378 28.5947 35.7556 28.5947 36.0242C28.5947 36.2928 28.8079 36.5105 29.0709 36.5105Z" fill="#0080FF"/>
<path d="M34.8398 49.9999C32.6749 49.9999 30.9136 48.1965 30.9136 45.9798C30.9136 45.5347 30.9912 45.1516 31.1683 44.7439L22.4206 28.8542C21.0401 26.3468 20.8243 23.3686 21.8281 20.6832C21.9 20.491 22.0763 20.3576 22.2808 20.3408C22.4855 20.3246 22.681 20.4268 22.7833 20.6046L35.1958 42.1819C36.0966 42.2053 36.9329 42.5435 37.5791 43.1522C38.3333 43.8625 38.7659 44.8931 38.7659 45.9797C38.7659 48.1965 37.0046 49.9999 34.8398 49.9999ZM22.4788 22.1995C22.0109 24.2739 22.3107 26.458 23.3485 28.3434L32.2275 44.4713C32.3131 44.6266 32.3152 44.8144 32.2331 44.9717C32.0171 45.3856 31.9729 45.6742 31.9729 45.9799C31.9729 47.6125 33.259 48.9407 34.8398 48.9407C36.4205 48.9407 37.7066 47.6125 37.7066 45.9799C37.7066 45.184 37.3954 44.4345 36.8528 43.9234C36.3419 43.4422 35.6572 43.2015 34.924 43.2454C34.723 43.258 34.5333 43.1549 34.4332 42.9808L22.4788 22.1995Z" fill="#0080FF"/>
<path d="M34.8088 47.8516C34.3296 47.8516 33.8797 47.6656 33.5414 47.3273C33.2016 46.9875 33.0154 46.5351 33.0171 46.0534C33.0206 45.0625 33.8296 44.2535 34.8204 44.25C34.8227 44.25 34.8248 44.25 34.827 44.25C35.3062 44.25 35.7561 44.436 36.0943 44.7743C36.4341 45.114 36.6204 45.5665 36.6187 46.0482C36.6152 47.0391 35.8062 47.8481 34.8153 47.8516C34.8131 47.8516 34.8109 47.8516 34.8088 47.8516ZM34.8269 45.3092C34.826 45.3092 34.8251 45.3092 34.8242 45.3092C34.4133 45.3107 34.0779 45.6462 34.0764 46.0571C34.0756 46.2544 34.1517 46.4395 34.2905 46.5783C34.4286 46.7164 34.6126 46.7924 34.809 46.7924C34.8098 46.7924 34.8108 46.7924 34.8116 46.7924C35.2225 46.7909 35.558 46.4554 35.5595 46.0445C35.5601 45.8471 35.4842 45.662 35.3454 45.5233C35.2072 45.3852 35.0232 45.3092 34.8269 45.3092Z" fill="#0080FF"/>
<path d="M50.0002 20.339H48.9038V21.3983H50.0002V20.339Z" fill="#0080FF"/>
<path d="M47.7388 20.339H44.2559V21.3983H47.7388V20.339Z" fill="#0080FF"/>
<path d="M49.9998 23.2021H44.2451V24.2615H49.9998V23.2021Z" fill="#0080FF"/>
<path d="M49.9876 26.1243H44.2329V27.1836H49.9876V26.1243Z" fill="#0080FF"/>
<path d="M49.9749 29.0465H44.2202V30.1058H49.9749V29.0465Z" fill="#0080FF"/>
<path d="M49.9621 31.969H48.7979V33.0283H49.9621V31.969Z" fill="#0080FF"/>
<path d="M47.6327 31.969H44.2075V33.0283H47.6327V31.969Z" fill="#0080FF"/>
<path d="M49.9494 34.8911H44.1948V35.9504H49.9494V34.8911Z" fill="#0080FF"/>
<path d="M49.9368 37.8134H44.1821V38.8727H49.9368V37.8134Z" fill="#0080FF"/>
<path d="M42.517 50.0003C41.3125 50.0003 40.3325 49.0203 40.3325 47.8159V24.1785C40.3325 22.0616 42.0547 20.3394 44.1717 20.3394C44.4642 20.3394 44.7013 20.5764 44.7013 20.869V47.8159C44.7013 49.0203 43.7215 50.0003 42.517 50.0003ZM43.642 21.4493C42.3616 21.6973 41.3918 22.8268 41.3918 24.1786V47.816C41.3918 48.4363 41.8966 48.9411 42.5169 48.9411C43.1372 48.9411 43.6419 48.4363 43.6419 47.816V21.4493H43.642Z" fill="#0080FF"/>
<path d="M44.9202 16.9491H43.5649V18.0084H44.9202V16.9491Z" fill="#0080FF"/>
<path d="M33.9007 16.9492H32.5454V18.0085H33.9007V16.9492Z" fill="#0080FF"/>
<path d="M42.2373 16.9491H35.3057V18.0084H42.2373V16.9491Z" fill="#0080FF"/>
<path d="M48.9534 9.77951L47.9282 9.51256C48.1536 8.64656 48.268 7.77252 48.268 6.91479C48.268 5.52348 47.9456 4.18853 47.3096 2.94669L48.2523 2.46375C48.9656 3.85633 49.3272 5.35388 49.3272 6.91479C49.3273 7.86267 49.2015 8.82644 48.9534 9.77951Z" fill="#0080FF"/>
<path d="M48.2661 11.7474L47.2959 11.322C47.4278 11.0212 47.5478 10.7165 47.6528 10.4163L48.6527 10.7657C48.5389 11.0916 48.4088 11.4218 48.2661 11.7474Z" fill="#0080FF"/>
<path d="M47.4339 13.3718L46.52 12.8361C46.6537 12.608 46.7812 12.3774 46.899 12.1505L47.8391 12.6385C47.713 12.8817 47.5767 13.1284 47.4339 13.3718Z" fill="#0080FF"/>
<path d="M38.9104 17.9338L38.6123 17.723C38.3267 17.5211 31.6172 12.7093 31.6172 6.91481C31.6171 3.1019 34.8923 0 38.9181 0C42.9439 0 46.219 3.1019 46.219 6.9147C46.219 12.954 39.4995 17.538 39.2135 17.7302L38.9104 17.9338ZM38.9181 1.05932C35.4765 1.05932 32.6765 3.68611 32.6765 6.9147C32.6765 11.5116 37.6421 15.6434 38.925 16.6338C40.2116 15.6799 45.1597 11.6992 45.1597 6.9147C45.1597 3.68611 42.3597 1.05932 38.9181 1.05932Z" fill="#0080FF"/>
<path d="M38.9181 10.6153C36.9666 10.6153 35.3789 9.0627 35.3789 7.15423C35.3789 5.24576 36.9666 3.69312 38.9181 3.69312C40.8695 3.69312 42.4572 5.24576 42.4572 7.15423C42.4572 9.0627 40.8695 10.6153 38.9181 10.6153ZM38.9181 4.75243C37.5507 4.75243 36.4382 5.82987 36.4382 7.15423C36.4382 8.47859 37.5507 9.55602 38.9181 9.55602C40.2854 9.55602 41.3979 8.47859 41.3979 7.15423C41.3979 5.82987 40.2854 4.75243 38.9181 4.75243Z" fill="#0080FF"/>
<path d="M50.0002 48.9406H48.9038V49.9999H50.0002V48.9406Z" fill="#0080FF"/>
<path d="M47.8444 48.9406H4.52295V49.9999H47.8444V48.9406Z" fill="#0080FF"/>
<path d="M3.35759 48.9406H2.12744V49.9999H3.35759V48.9406Z" fill="#0080FF"/>
<path d="M1.06795 48.9408H0.00146484V50.0001H1.06795V48.9408Z" fill="#0080FF"/>
<path d="M17.2019 4.05957H16.1426V5.56052H17.2019V4.05957Z" fill="#0080FF"/>
<path d="M17.2019 7.55518H16.1426V9.05612H17.2019V7.55518Z" fill="#0080FF"/>
<path d="M19.1703 6.0282H17.6694V7.08752H19.1703V6.0282Z" fill="#0080FF"/>
<path d="M15.6747 6.0282H14.1738V7.08752H15.6747V6.0282Z" fill="#0080FF"/>
<path d="M7.66768 0H6.6084V1.50105H7.66768V0Z" fill="#0080FF"/>
<path d="M7.66768 3.49573H6.6084V4.99678H7.66768V3.49573Z" fill="#0080FF"/>
<path d="M9.63664 1.96875H8.13574V3.02807H9.63664V1.96875Z" fill="#0080FF"/>
<path d="M6.14104 1.96875H4.64014V3.02807H6.14104V1.96875Z" fill="#0080FF"/>
<path d="M3.0295 7.41528H1.97021V8.91634H3.0295V7.41528Z" fill="#0080FF"/>
<path d="M3.0295 10.911H1.97021V12.4121H3.0295V10.911Z" fill="#0080FF"/>
<path d="M4.99846 9.38403H3.49756V10.4434H4.99846V9.38403Z" fill="#0080FF"/>
<path d="M1.50237 9.38403H0.00146484V10.4434H1.50237V9.38403Z" fill="#0080FF"/>
</svg>
