<svg width="23" height="31" viewBox="0 0 23 31" fill="none" xmlns="http://www.w3.org/2000/svg">
<path d="M0.404297 8.81047C0.404297 14.297 4.58043 17.6102 11.7715 17.6208C18.9093 17.6315 23.0002 14.2757 23.0002 8.81047C23.0002 3.33462 18.9199 0.0107549 11.7715 0.000101499C4.60174 -0.0212053 0.41495 3.31331 0.404297 8.81047ZM4.22887 8.81047C4.22887 6.30692 6.74308 4.6876 11.7715 4.69826C16.7253 4.70891 19.2182 6.31757 19.2182 8.81047C19.2182 11.2927 16.7253 12.912 11.7715 12.912C6.74308 12.9227 4.22887 11.3034 4.22887 8.81047Z" fill="#D8D8D8"/>
<path d="M22.7019 30.4023V26.0663L19.2821 20.6651H15.1912L18.3233 25.6615V25.7893H0.8837V30.4023H22.7019Z" fill="#D8D8D8"/>
</svg>
