<svg width="23" height="37" viewBox="0 0 23 37" fill="none" xmlns="http://www.w3.org/2000/svg">
<path d="M0.404297 8.81047C0.404297 14.297 4.58043 17.6102 11.7715 17.6208C18.9093 17.6315 23.0002 14.2757 23.0002 8.81047C23.0002 3.33462 18.9199 0.0107549 11.7715 0.000101499C4.60174 -0.0212053 0.41495 3.31331 0.404297 8.81047ZM4.22887 8.81047C4.22887 6.30692 6.74308 4.6876 11.7715 4.69826C16.7253 4.70891 19.2182 6.31757 19.2182 8.81047C19.2182 11.2927 16.7253 12.912 11.7715 12.912C6.74308 12.9227 4.22887 11.3034 4.22887 8.81047Z" fill="#D8D8D8"/>
<path d="M0.8837 20.9101V36.4641H4.65501V27.3021H4.80415L7.9256 30.4875C12.0165 34.9726 14.062 36.1764 16.5442 36.1764C20.3262 36.1764 23.0002 33.0869 23.0002 28.4101C23.0002 23.8291 20.2623 20.6864 15.9796 20.697V25.0756C18.0676 25.0649 19.3461 26.3859 19.3461 28.3781C19.3461 30.2957 18.1529 31.7233 16.2353 31.7233C14.4988 31.7233 13.3056 30.6579 11.3986 28.6764L4.20756 20.9101H0.8837Z" fill="#D8D8D8"/>
</svg>
