<svg width="24" height="38" viewBox="0 0 24 38" fill="none" xmlns="http://www.w3.org/2000/svg">
<path d="M0.904297 9.31047C0.904297 14.797 5.08043 18.1102 12.2715 18.1208C19.4093 18.1315 23.5002 14.7757 23.5002 9.31047C23.5002 3.83462 19.4199 0.510755 12.2715 0.500101C5.10174 0.478795 0.91495 3.81331 0.904297 9.31047ZM4.72887 9.31047C4.72887 6.80692 7.24308 5.1876 12.2715 5.19826C17.2253 5.20891 19.7182 6.81757 19.7182 9.31047C19.7182 11.7927 17.2253 13.412 12.2715 13.412C7.24308 13.4227 4.72887 11.8034 4.72887 9.31047Z" fill="#D8D8D8"/>
<path d="M1.0854 29.4747C1.0854 34.3753 3.78072 37.8803 7.50941 37.8696C10.226 37.8803 12.165 36.1544 12.5698 32.9477H12.7402C13.177 35.3874 14.9029 37.0706 17.3532 37.0599C20.7942 37.0706 23.5002 34.0557 23.5002 29.5386C23.5002 25.0642 20.8794 21.6977 17.1081 21.6338V26.055C18.7701 26.1082 19.8461 27.6317 19.8461 29.5173C19.8461 31.3817 18.7168 32.6281 17.0762 32.6175C15.361 32.6281 14.1998 31.1686 14.1998 29.0699V27.0351H10.812V29.0699C10.812 31.5415 9.57617 33.0862 7.81836 33.0756C6.08185 33.0862 4.88867 31.5947 4.88867 29.4854C4.88867 27.4506 5.95401 25.9271 7.55202 25.8419V21.197C3.7381 21.2716 1.0854 24.6807 1.0854 29.4747Z" fill="#D8D8D8"/>
</svg>
