<svg width="573" height="59" viewBox="0 0 573 59" fill="none" xmlns="http://www.w3.org/2000/svg">
<path d="M0 57.3047H24.9609C36.9922 57.3047 44.4531 51.1328 44.4531 41.25V41.1719C44.4531 33.7891 38.7891 28.2422 30.9375 27.6562V27.4219C37.1484 26.6016 41.8359 21.3281 41.8359 15.1562V15.0781C41.8359 6.40625 35.1562 0.9375 24.5312 0.9375H0V57.3047ZM21.4844 9.6875C26.9922 9.6875 30.2344 12.2656 30.2344 16.7578V16.8359C30.2344 21.7188 26.6797 24.4922 20.0391 24.4922H11.7969V9.6875H21.4844ZM21.4453 32.5C28.6719 32.5 32.4219 35.2734 32.4219 40.4297V40.5078C32.4219 45.7422 28.7109 48.5156 21.9531 48.5156H11.7969V32.5H21.4453Z" fill="white"/>
<path d="M47.9719 57.3047H59.7687V33.5547H85.1594V57.3047H96.9563V0.9375H85.1594V23.8281H59.7687V0.9375H47.9719V57.3047Z" fill="white"/>
<path d="M135.866 57.3047H147.702L140.436 0.9375H126.53L94.6937 57.3047H107.272L114.616 43.8672H134.459L135.866 57.3047ZM131.139 12.3828H131.413L133.756 34.7656H119.147L131.139 12.3828Z" fill="white"/>
<path d="M184.736 19.4922H184.97L187.822 57.3047H199.033L225.752 0.9375H213.525L196.142 40.7422H195.908L193.369 0.9375H183.642L164.541 40.7812H164.306L163.642 0.9375H151.845L154.814 57.3047H166.103L184.736 19.4922Z" fill="white"/>
<path d="M247.981 57.3047H259.817L252.552 0.9375H238.645L206.809 57.3047H219.387L226.731 43.8672H246.575L247.981 57.3047ZM243.255 12.3828H243.528L245.872 34.7656H231.262L243.255 12.3828Z" fill="white"/>
<path d="M266.5 57.3047H278.297V36.875H287.75L298.258 57.3047H311.617L299.742 35.1172C305.992 32.6562 309.938 26.4844 309.938 19.0625V18.9844C309.938 7.65625 302.438 0.9375 289.781 0.9375H266.5V57.3047ZM278.297 27.9297V10.1562H288.336C294.156 10.1562 297.867 13.5938 297.867 18.9844V19.0625C297.867 24.6094 294.352 27.9297 288.492 27.9297H278.297Z" fill="white"/>
<path d="M352.414 58.2422C367.453 58.2422 376.32 49.2188 376.32 33.9844V28.6328H353.391V34.8047H369.289V35.8203C369.289 45.2734 362.414 51.7578 352.414 51.7578C340.93 51.7578 333.781 43.0078 333.781 28.8281V28.7891C333.781 14.8828 340.812 6.48438 352.414 6.48438C360.344 6.48438 365.812 10.5859 368.43 17.7344L368.586 18.1641H375.969L375.773 17.4219C373.156 7.46094 365.383 0 352.414 0C336.672 0 326.594 11.1719 326.594 28.7891V28.8281C326.594 46.7969 336.672 58.2422 352.414 58.2422Z" fill="white"/>
<path d="M382.144 57.3047H389.175V35H402.652L414.722 57.3047H422.964L409.917 33.9062C416.948 31.6797 421.245 25.625 421.245 17.8125V17.7344C421.245 7.57812 414.136 0.9375 403.277 0.9375H382.144V57.3047ZM389.175 28.7891V7.1875H402.339C409.566 7.1875 413.98 11.1719 413.98 17.8906V17.9688C413.98 24.8828 409.878 28.7891 402.652 28.7891H389.175Z" fill="white"/>
<path d="M450.741 58.2422C466.717 58.2422 476.678 47.0312 476.678 29.1406V29.0625C476.678 11.2109 466.678 0 450.741 0C434.764 0 424.725 11.2109 424.725 29.0625V29.1406C424.725 47.0312 434.725 58.2422 450.741 58.2422ZM450.741 51.7578C439.178 51.7578 431.913 43.0078 431.913 29.1406V29.0625C431.913 15.1953 439.217 6.48438 450.741 6.48438C462.225 6.48438 469.491 15.2344 469.491 29.0625V29.1406C469.491 42.8906 462.342 51.7578 450.741 51.7578Z" fill="white"/>
<path d="M504.65 58.2422C518.634 58.2422 526.994 49.8047 526.994 37.5391V0.9375H519.963V37.0703C519.963 45.7422 514.416 51.7578 504.65 51.7578C494.884 51.7578 489.259 45.7422 489.259 37.0703V0.9375H482.228V37.5391C482.228 49.8047 490.666 58.2422 504.65 58.2422Z" fill="white"/>
<path d="M534.731 57.3047H541.763V37.1875H554.809C565.395 37.1875 572.895 29.7266 572.895 19.0234V18.9453C572.895 8.24219 565.395 0.9375 554.809 0.9375H534.731V57.3047ZM553.013 7.1875C561.059 7.1875 565.708 11.6016 565.708 19.0234V19.1016C565.708 26.5234 561.059 30.9375 553.013 30.9375H541.763V7.1875H553.013Z" fill="white"/>
</svg>
