<svg width="21" height="21" viewBox="0 0 21 21" fill="none" xmlns="http://www.w3.org/2000/svg">
<path d="M15.3892 6.31598C15.1892 6.32398 15.0052 6.40398 14.8692 6.54798L8.5332 12.884L6.2852 10.94C5.9812 10.652 5.5012 10.668 5.2132 10.972C4.9252 11.276 4.9412 11.756 5.2452 12.044C5.2612 12.06 5.2772 12.076 5.3012 12.092L8.0692 14.5C8.3732 14.756 8.8212 14.74 9.1012 14.46L15.9412 7.61998C16.2372 7.32398 16.2452 6.84398 15.9492 6.54798C15.8052 6.39598 15.5972 6.31598 15.3892 6.31598Z" fill="white"/>
<path d="M20.0211 20.5H1.14105C0.829055 20.5 0.581055 20.252 0.581055 19.94V1.06C0.581055 0.748 0.829055 0.5 1.14105 0.5H20.0211C20.3331 0.5 20.5811 0.748 20.5811 1.06V19.94C20.5811 20.252 20.3331 20.5 20.0211 20.5ZM1.38105 19.7H19.7811V1.3H1.38105V19.7Z" fill="white"/>
</svg>
